<svg width="347" height="268" viewBox="0 0 347 268" fill="none">
<g id="Frame">
<g id="lines">
<g id="Group">
<path id="Vector" d="M1.09464 72.6519L23.8631 49.3857L47.5073 68.2621L80.3464 2.41441L96.3281 36.4357L96.547 37.0942L117.126 21.9492L162.006 76.8223L182.367 64.3112L202.07 91.9672L232.063 35.9967L284.168 112.38L303.652 168.57L322.042 184.373L347 72.6519L345.905 71.9934L321.167 182.398L304.528 168.131L285.262 112.161L232.501 34.6798L232.063 33.8018L201.851 89.9918L183.023 63.2138L182.586 62.7748L162.225 75.2858L117.783 20.8518L117.345 20.4128L96.9849 35.3382L80.3464 0L47.0694 66.5061L23.8631 47.8493L0 71.9934L1.09464 72.6519Z" fill="#31F57A"/>
</g>
<g id="Group_2">
<path id="Vector_2" d="M347 196.226L322.042 268L303.652 257.903L284.168 221.907L232.063 172.74L202.07 208.737L182.367 190.958L162.006 198.86L117.126 163.741L96.7659 173.399L80.3464 151.23L47.2883 193.373L23.8631 181.301L1.09464 196.226L0 195.568L23.8631 179.984L47.0694 192.056L80.3464 149.255L96.9849 172.082L117.345 162.424L162.225 197.762L182.586 189.641L182.804 189.861L201.851 207.201L232.063 170.984L232.501 171.423L285.044 221.248L304.528 257.245L321.386 266.464L345.905 195.568L347 196.226Z" fill="#31F57A"/>
</g>
</g>
<g id="sticks">
<g id="Group_3">
<path id="Vector_3" d="M339.338 93.7232H338.243V176.252H339.338V93.7232Z" fill="#31F57A"/>
</g>
<g id="Group_4">
<path id="Vector_4" d="M322.042 146.401H320.948V255.269H322.042V146.401Z" fill="#31F57A"/>
</g>
<g id="Group_5">
<path id="Vector_5" d="M304.966 159.132H303.871V237.71H304.966V159.132Z" fill="#31F57A"/>
</g>
<g id="Group_6">
<path id="Vector_6" d="M287.671 74.6274H286.576V264.488H287.671V74.6274Z" fill="#31F57A"/>
</g>
<g id="Group_7">
<path id="Vector_7" d="M270.375 67.6036H269.281V202.811H270.375V67.6036Z" fill="#31F57A"/>
</g>
<g id="Group_8">
<path id="Vector_8" d="M253.08 88.8944H251.985V140.695H253.08V88.8944Z" fill="#31F57A"/>
</g>
<g id="Group_9">
<path id="Vector_9" d="M236.004 70.6765H234.909V142.889H236.004V70.6765Z" fill="#31F57A"/>
</g>
<g id="Group_10">
<path id="Vector_10" d="M218.709 60.5798H217.614V161.766H218.709V60.5798Z" fill="#31F57A"/>
</g>
<g id="Group_11">
<path id="Vector_11" d="M201.413 111.941H200.319V176.252H201.413V111.941Z" fill="#31F57A"/>
</g>
<g id="Group_12">
<path id="Vector_12" d="M184.337 80.5536H183.242V192.934H184.337V80.5536Z" fill="#31F57A"/>
</g>
<g id="Group_13">
<path id="Vector_13" d="M167.042 115.014H165.947V148.377H167.042V115.014Z" fill="#31F57A"/>
</g>
<g id="Group_14">
<path id="Vector_14" d="M149.746 92.4062H148.652V138.5H149.746V92.4062Z" fill="#31F57A"/>
</g>
<g id="Group_15">
<path id="Vector_15" d="M132.451 62.3358H131.356V154.523H132.451V62.3358Z" fill="#31F57A"/>
</g>
<g id="Group_16">
<path id="Vector_16" d="M115.375 49.3858H114.28V134.988H115.375V49.3858Z" fill="#31F57A"/>
</g>
<g id="Group_17">
<path id="Vector_17" d="M98.0795 55.312H96.9848V154.303H98.0795V55.312Z" fill="#31F57A"/>
</g>
<g id="Group_18">
<path id="Vector_18" d="M80.7842 25.0221H79.6896V148.157H80.7842V25.0221Z" fill="#31F57A"/>
</g>
<g id="Group_19">
<path id="Vector_19" d="M63.7079 47.6298H62.6133V149.694H63.7079V47.6298Z" fill="#31F57A"/>
</g>
<g id="Group_20">
<path id="Vector_20" d="M46.4126 100.088H45.318V156.278H46.4126V100.088Z" fill="#31F57A"/>
</g>
<g id="Group_21">
<path id="Vector_21" d="M29.1173 73.0909H28.0227V155.4H29.1173V73.0909Z" fill="#31F57A"/>
</g>
<g id="Group_22">
<path id="Vector_22" d="M11.8221 59.7019H10.7274V204.128H11.8221V59.7019Z" fill="#31F57A"/>
</g>
</g>
<g id="candle">
<g id="Group_23">
<path id="Vector_23" d="M344.373 122.477H333.427V147.499H344.373V122.477Z" fill="#31F57A"/>
</g>
<g id="Group_24">
<path id="Vector_24" d="M327.078 184.373H316.131V217.297H327.078V184.373Z" fill="#31F57A"/>
</g>
<g id="Group_25">
<path id="Vector_25" d="M309.782 186.568H298.836V210.274H309.782V186.568Z" fill="#31F57A"/>
</g>
<g id="Group_26">
<path id="Vector_26" d="M292.487 140.695H281.541V198.201H292.487V140.695Z" fill="#31F57A"/>
</g>
<g id="Group_27">
<path id="Vector_27" d="M275.411 114.794H264.464V155.839H275.411V114.794Z" fill="#31F57A"/>
</g>
<g id="Group_28">
<path id="Vector_28" d="M258.115 106.893H247.169V122.477H258.115V106.893Z" fill="#31F57A"/>
</g>
<g id="Group_29">
<path id="Vector_29" d="M240.82 95.9181H229.874V117.867H240.82V95.9181Z" fill="#31F57A"/>
</g>
<g id="Group_30">
<path id="Vector_30" d="M223.744 95.9181H212.797V126.647H223.744V95.9181Z" fill="#31F57A"/>
</g>
<g id="Group_31">
<path id="Vector_31" d="M206.449 134.329H195.502V153.864H206.449V134.329Z" fill="#31F57A"/>
</g>
<g id="Group_32">
<path id="Vector_32" d="M189.153 119.623H178.207V153.645H189.153V119.623Z" fill="#31F57A"/>
</g>
<g id="Group_33">
<path id="Vector_33" d="M171.858 126.647H160.912V136.744H171.858V126.647Z" fill="#31F57A"/>
</g>
<g id="Group_34">
<path id="Vector_34" d="M154.782 108.649H143.835V122.696H154.782V108.649Z" fill="#31F57A"/>
</g>
<g id="Group_35">
<path id="Vector_35" d="M137.486 94.6011H126.54V122.477H137.486V94.6011Z" fill="#31F57A"/>
</g>
<g id="Group_36">
<path id="Vector_36" d="M120.191 79.2367H109.245V105.137H120.191V79.2367Z" fill="#31F57A"/>
</g>
<g id="Group_37">
<path id="Vector_37" d="M102.896 89.7723H91.9495V119.843H102.896V89.7723Z" fill="#31F57A"/>
</g>
<g id="Group_38">
<path id="Vector_38" d="M85.8195 67.8231H74.8732V105.137H85.8195V67.8231Z" fill="#31F57A"/>
</g>
<g id="Group_39">
<path id="Vector_39" d="M68.5243 83.1875H57.5779V114.136H68.5243V83.1875Z" fill="#31F57A"/>
</g>
<g id="Group_40">
<path id="Vector_40" d="M51.229 119.623H40.2827V136.744H51.229V119.623Z" fill="#31F57A"/>
</g>
<g id="Group_41">
<path id="Vector_41" d="M34.1527 101.625H23.2063V126.647H34.1527V101.625Z" fill="#31F57A"/>
</g>
<g id="Group_42">
<path id="Vector_42" d="M16.8574 109.966H5.91104V153.645H16.8574V109.966Z" fill="#31F57A"/>
</g>
</g>
</g>
</svg>
