<svg xmlns="http://www.w3.org/2000/svg" viewBox="-42 0 512 512.001" xmlns:v="https://vecta.io/nano"><path d="M210.352 246.633c33.883 0 63.219-12.152 87.195-36.129 23.969-23.973 36.125-53.305 36.125-87.191 0-33.875-12.152-63.211-36.129-87.191C273.566 12.152 244.23 0 210.352 0c-33.887 0-63.219 12.152-87.191 36.125s-36.129 53.309-36.129 87.188c0 33.887 12.156 63.223 36.129 87.195 23.98 23.969 53.316 36.125 87.191 36.125zM144.379 57.34c18.395-18.395 39.973-27.336 65.973-27.336s47.578 8.941 65.977 27.336 27.34 39.98 27.34 65.973c0 26-8.945 47.578-27.34 65.977s-39.98 27.34-65.977 27.34-47.57-8.945-65.973-27.34-27.344-39.977-27.344-65.977c0-25.992 8.945-47.574 27.344-65.973zm281.75 336.363c-.691-9.977-2.09-20.859-4.148-32.352-2.078-11.578-4.754-22.523-7.957-32.527-3.312-10.34-7.809-20.551-13.375-30.336-5.77-10.156-12.551-19-20.16-26.277-7.957-7.613-17.699-13.734-28.965-18.199-11.227-4.441-23.668-6.691-36.977-6.691-5.227 0-10.281 2.145-20.043 8.5l-20.879 13.461c-6.707 4.273-15.793 8.277-27.016 11.902-10.949 3.543-22.066 5.34-33.043 5.34-10.969 0-22.086-1.797-33.043-5.34-11.211-3.621-20.301-7.625-26.996-11.898l-20.898-13.469c-9.754-6.355-14.809-8.5-20.035-8.5-13.312 0-25.75 2.254-36.973 6.699-11.258 4.457-21.004 10.578-28.969 18.199-7.609 7.281-14.391 16.121-20.156 26.273-5.559 9.785-10.059 19.992-13.371 30.34-3.199 10.004-5.875 20.945-7.953 32.523-2.062 11.477-3.457 22.363-4.148 32.363C.344 403.492 0 413.668 0 423.949c0 26.727 8.496 48.363 25.25 64.32C41.797 504.016 63.688 512 90.316 512h246.531c26.621 0 48.512-7.984 65.063-23.73 16.758-15.945 25.254-37.59 25.254-64.324-.004-10.316-.352-20.492-1.035-30.242zm-44.906 72.828c-10.934 10.406-25.449 15.465-44.379 15.465H90.316c-18.934 0-33.449-5.059-44.379-15.461-10.723-10.207-15.934-24.141-15.934-42.586 0-9.594.316-19.066.949-28.16.617-8.922 1.879-18.723 3.75-29.137 1.848-10.285 4.199-19.937 6.996-28.676 2.684-8.379 6.344-16.676 10.883-24.668 4.332-7.617 9.316-14.152 14.816-19.418 5.145-4.926 11.629-8.957 19.27-11.98 7.066-2.797 15.008-4.328 23.629-4.559 1.051.559 2.922 1.625 5.953 3.602l21.137 13.625c8.859 5.648 20.273 10.75 33.91 15.152 13.941 4.508 28.16 6.797 42.273 6.797s28.336-2.289 42.27-6.793c13.648-4.41 25.059-9.508 33.93-15.164l21.121-13.617c3.031-1.973 4.902-3.043 5.953-3.602 8.625.23 16.566 1.762 23.637 4.559 7.637 3.023 14.121 7.059 19.266 11.98 5.5 5.262 10.484 11.797 14.816 19.422 4.543 7.988 8.207 16.289 10.887 24.66 2.801 8.75 5.156 18.398 7 28.676 1.867 10.434 3.133 20.238 3.75 29.145v.008c.637 9.059.957 18.527.961 28.148-.004 18.449-5.215 32.379-15.937 42.582zm0 0"/></svg>